<svg width="400" height="300" viewBox="0 0 400 300" xmlns="http://www.w3.org/2000/svg">
  <!-- Background -->
  <rect width="400" height="300" fill="#f97316" opacity="0.1"/>
  
  <!-- Dumbbell -->
  <rect x="100" y="120" width="100" height="20" rx="10" fill="#f97316" opacity="0.8"/>
  <rect x="80" y="115" width="30" height="30" rx="5" fill="#f97316"/>
  <rect x="190" y="115" width="30" height="30" rx="5" fill="#f97316"/>
  
  <!-- Protein Shaker -->
  <rect x="180" y="80" width="40" height="60" rx="5" fill="none" stroke="#f97316" stroke-width="3"/>
  <rect x="185" y="85" width="30" height="50" fill="#f97316" opacity="0.3"/>
  <circle cx="200" cy="100" r="8" fill="#f97316" opacity="0.5"/>
  <rect x="195" y="120" width="10" height="15" rx="2" fill="#f97316" opacity="0.6"/>
  
  <!-- Supplements Bottles -->
  <rect x="250" y="100" width="25" height="40" rx="3" fill="#f97316" opacity="0.7"/>
  <rect x="285" y="105" width="25" height="35" rx="3" fill="#ea580c" opacity="0.7"/>
  <rect x="320" y="95" width="25" height="45" rx="3" fill="#f97316" opacity="0.7"/>
  
  <!-- E-commerce Cart -->
  <rect x="80" y="200" width="80" height="60" rx="5" fill="none" stroke="#f97316" stroke-width="2"/>
  <circle cx="100" cy="240" r="8" fill="#f97316"/>
  <circle cx="140" cy="240" r="8" fill="#f97316"/>
  <rect x="90" y="210" width="20" height="15" rx="2" fill="#f97316" opacity="0.6"/>
  <rect x="120" y="210" width="20" height="15" rx="2" fill="#f97316" opacity="0.6"/>
  
  <!-- ROAS Indicator -->
  <path d="M50 250 L100 250 L90 230 M100 250 L90 270" stroke="#ea580c" stroke-width="4" fill="none"/>
  <text x="110" y="255" font-family="Arial" font-size="16" fill="#ea580c" font-weight="bold">6.8x</text>
  
  <!-- Ads Icon -->
  <rect x="250" y="200" width="100" height="60" rx="5" fill="none" stroke="#f97316" stroke-width="2"/>
  <rect x="260" y="210" width="80" height="8" fill="#f97316" opacity="0.6"/>
  <rect x="260" y="225" width="60" height="8" fill="#f97316" opacity="0.4"/>
  <circle cx="320" cy="230" r="8" fill="#ea580c" opacity="0.6"/>
  <text x="330" y="235" font-family="Arial" font-size="10" fill="#ea580c" font-weight="bold">AD</text>
</svg>
