<?xml version="1.0" encoding="UTF-8"?>
<svg width="64" height="64" viewBox="0 0 64 64" fill="none" xmlns="http://www.w3.org/2000/svg">
  <!-- Background: subtle dark circle -->
  <defs>
    <radialGradient id="bg" cx="0" cy="0" r="1" gradientUnits="userSpaceOnUse" gradientTransform="translate(32 32) rotate(90) scale(32)">
      <stop offset="0%" stop-color="#0D0D0D"/>
      <stop offset="100%" stop-color="#0A0A0A"/>
    </radialGradient>
    <filter id="glow" x="-50%" y="-50%" width="200%" height="200%">
      <feGaussianBlur in="SourceGraphic" stdDeviation="1.5" result="blur"/>
    </filter>
  </defs>
  <circle cx="32" cy="32" r="30" fill="url(#bg)"/>
  
  <!-- Letter J: cyan accent with subtle glow -->
  <path d="M38 14H26v26.5c0 4.2-2.9 7.5-7 7.5-2.3 0-4.6-.9-6-2.5l-3 4.3C12.1 52.6 15.9 54 19 54c8.4 0 13-5.9 13-13.5V20h6c1.1 0 2-.9 2-2s-.9-2-2-2z" 
        fill="#00D4FF"/>
  <path d="M38 14H26v26.5c0 4.2-2.9 7.5-7 7.5-2.3 0-4.6-.9-6-2.5l-3 4.3C12.1 52.6 15.9 54 19 54c8.4 0 13-5.9 13-13.5V20h6c1.1 0 2-.9 2-2s-.9-2-2-2z" 
        fill="#00D4FF" opacity="0.6" filter="url(#glow)"/>
  
  <!-- Border -->
  <circle cx="32" cy="32" r="30" stroke="#111" stroke-width="1" fill="none"/>
</svg>
